HIERARCHY
ROOT Pelvis
{
	OFFSET 0.000000 0.000000 0.000000
	CHANNELS 6 Xposition Yposition Zposition Xrotation Yrotation Zrotation
	JOINT LeftUpLeg_virtual
	{
		OFFSET 0.000000 0.000000 0.000000
		CHANNELS 3 Xrotation Yrotation Zrotation
		JOINT LeftUpLeg
		{
			OFFSET 18.735201 -5.666702 -4.541200
			CHANNELS 3 Xrotation Yrotation Zrotation
			JOINT LeftLeg
			{
				OFFSET -0.021200 -31.938179 0.493100
				CHANNELS 3 Xrotation Yrotation Zrotation
				JOINT LeftFoot
				{
					OFFSET 0.021200 -31.938179 -4.336299
					CHANNELS 3 Xrotation Yrotation Zrotation
					JOINT LeftToeBase
					{
						OFFSET 0.943001 -26.722000 15.023500
						CHANNELS 3 Xrotation Yrotation Zrotation
						End Site
						{
							OFFSET 0 0 0
						}
					}
				}
			}
		}
	}
	JOINT RightUpLeg_virtual
	{
		OFFSET 0.000000 0.000000 0.000000
		CHANNELS 3 Xrotation Yrotation Zrotation
		JOINT RightUpLeg
		{
			OFFSET -18.735201 -5.666702 -4.541200
			CHANNELS 3 Xrotation Yrotation Zrotation
			JOINT RightLeg
			{
				OFFSET 0.018946 -31.938133 0.493100
				CHANNELS 3 Xrotation Yrotation Zrotation
				JOINT RightFoot
				{
					OFFSET -0.018946 -31.938126 -4.336299
					CHANNELS 3 Xrotation Yrotation Zrotation
					JOINT RightToeBase
					{
						OFFSET -0.943001 -26.722004 15.023500
						CHANNELS 3 Xrotation Yrotation Zrotation
						End Site
						{
							OFFSET 0 0 0
						}
					}
				}
			}
		}
	}
	JOINT Hips_virtual
	{
		OFFSET 0.000000 0.000000 0.000000
		CHANNELS 3 Xrotation Yrotation Zrotation
		JOINT Hips
		{
			OFFSET -0.000000 -0.000000 -0.000000
			CHANNELS 3 Xrotation Yrotation Zrotation
			JOINT Spine
			{
				OFFSET 0.000000 10.199997 -0.299500
				CHANNELS 3 Xrotation Yrotation Zrotation
				JOINT Spine1
				{
					OFFSET 0.000000 11.900002 -1.516600
					CHANNELS 3 Xrotation Yrotation Zrotation
					JOINT Spine2
					{
						OFFSET 0.000000 13.600006 -2.842500
						CHANNELS 3 Xrotation Yrotation Zrotation
						JOINT Neck_virtual
						{
							OFFSET 0.000000 0.000000 0.000000
							CHANNELS 3 Xrotation Yrotation Zrotation
							JOINT Neck
							{
								OFFSET 0.000000 9.624100 -2.890100
								CHANNELS 3 Xrotation Yrotation Zrotation
								JOINT Head
								{
									OFFSET 0.000000 14.068802 -1.351900
									CHANNELS 3 Xrotation Yrotation Zrotation
									End Site
									{
										OFFSET 0 0 0
									}
								}
							}
						}
						JOINT LeftShoulder_virtual
						{
							OFFSET 0.000000 0.000000 0.000000
							CHANNELS 3 Xrotation Yrotation Zrotation
							JOINT LeftShoulder
							{
								OFFSET 15.263000 10.923401 -0.547700
								CHANNELS 3 Xrotation Yrotation Zrotation
								JOINT LeftArm
								{
									OFFSET 25.438599 -2.830597 -13.032500
									CHANNELS 3 Xrotation Yrotation Zrotation
									JOINT LeftForeArm
									{
										OFFSET 29.960503 0.000000 0.000000
										CHANNELS 3 Xrotation Yrotation Zrotation
										JOINT LeftHand
										{
											OFFSET 27.849251 0.000000 0.000000
											CHANNELS 3 Xrotation Yrotation Zrotation
											End Site
											{
												OFFSET 0 0 0
											}
										}
									}
								}
							}
						}
						JOINT RightShoulder_virtual
						{
							OFFSET 0.000000 0.000000 0.000000
							CHANNELS 3 Xrotation Yrotation Zrotation
							JOINT RightShoulder
							{
								OFFSET -15.263000 10.923401 -0.547700
								CHANNELS 3 Xrotation Yrotation Zrotation
								JOINT RightArm
								{
									OFFSET -25.438599 -2.830597 -13.032500
									CHANNELS 3 Xrotation Yrotation Zrotation
									JOINT RightForeArm
									{
										OFFSET -29.960503 0.000000 0.000000
										CHANNELS 3 Xrotation Yrotation Zrotation
										JOINT RightHand
										{
											OFFSET -27.849251 0.000000 0.000000
											CHANNELS 3 Xrotation Yrotation Zrotation
											End Site
											{
												OFFSET 0 0 0
											}
										}
									}
								}
							}
						}
					}
				}
			}
		}
	}
}
MOTION
Frames: 10
Frame Time: 0.03333333
-0.694860 87.984138 3.149012 0.000000 0.000000 0.000000 3.405123 -22.759650 -5.862330 -38.622206 7.396407 10.500827 64.028529 0.353211 1.482734 10.176747 -1.353929 -2.439589 0.000000 0.000000 0.000000 9.361258 -2.037334 5.197746 -18.087536 -7.158275 -9.616561 30.230803 -0.625364 -1.301189 -19.885191 -4.280348 8.775479 0.000000 0.000000 0.000000 5.601497 0.620793 -0.644273 19.072617 2.845495 -6.596441 7.163246 2.274456 -0.545589 2.450765 1.539589 -0.391313 0.000000 0.000000 0.000000 -1.137396 1.374742 0.144056 -2.795768 0.626670 -0.031426 0.000000 0.000000 0.000000 1.381772 1.474566 -1.873943 -0.915814 -2.765236 -14.290906 0.499703 -11.510974 -51.450227 3.453760 -45.028978 -2.510051 0.000000 0.000000 0.000000 2.369752 0.793259 1.420809 -1.153326 6.395586 11.938517 -2.261195 1.635131 45.092543 2.131952 43.002779 0.534424 0.000000 0.000000 0.000000 
-0.779427 87.478279 4.509590 0.000000 0.000000 0.000000 1.152640 -21.423095 -7.344852 -41.362348 7.832964 9.766715 63.735043 0.427416 2.009476 9.658909 -1.524794 -1.636665 0.000000 0.000000 0.000000 9.579008 -1.906438 4.701448 -17.494833 -7.068147 -9.973417 28.356680 -0.498856 -1.760965 -21.582824 -4.052396 8.028035 0.000000 0.000000 0.000000 4.689181 0.478436 -1.214597 22.834765 3.054045 -5.032032 6.339460 2.019057 -0.734540 2.008461 1.665865 -0.132981 0.000000 0.000000 0.000000 -1.476753 1.412085 0.062304 -2.892136 0.704275 0.088297 0.000000 0.000000 0.000000 0.206337 1.379987 -1.908631 -0.977281 -2.573559 -14.950166 0.805745 -10.826697 -50.622528 5.094954 -44.859999 -0.705540 0.000000 0.000000 0.000000 1.700769 1.158269 1.300535 -1.233679 6.878517 12.828720 -1.416094 2.182020 44.726227 2.089756 46.196497 0.455697 0.000000 0.000000 0.000000 
-0.958559 87.751030 6.040419 0.000000 0.000000 0.000000 -0.808714 -21.218500 -8.935206 -43.428675 8.129861 8.640543 63.397830 0.520611 2.125048 9.742298 -1.462705 -1.393794 0.000000 0.000000 0.000000 10.880106 -0.632704 5.564917 -15.542708 -7.067994 -8.837474 25.420678 -0.639274 -1.760824 -23.804912 -4.351521 7.796030 0.000000 0.000000 0.000000 5.664705 0.721420 -0.346806 20.826649 2.763429 -4.504466 6.509565 1.765858 -1.812855 1.111952 1.609804 -0.247420 0.000000 0.000000 0.000000 -1.456410 1.441279 -0.052936 -3.005837 0.737335 0.051858 0.000000 0.000000 0.000000 -0.348395 1.758346 -2.072664 -1.498420 -3.026909 -16.406371 0.246341 -10.181498 -51.430669 5.565413 -43.685542 -0.279198 0.000000 0.000000 0.000000 1.331892 1.421228 1.003747 -1.072224 6.338381 12.716007 -0.964096 0.843168 45.526390 1.493835 44.852773 0.437893 0.000000 0.000000 0.000000 
-1.638264 87.464157 6.755388 0.000000 0.000000 0.000000 -1.723565 -22.846892 -8.851065 -45.219100 7.621467 9.327210 64.307501 0.642659 2.118256 10.522346 -1.361809 -1.325365 0.000000 0.000000 0.000000 11.629302 -0.110404 5.535731 -14.314937 -7.018168 -8.685584 24.271132 -0.575099 -1.912968 -24.786123 -4.289982 7.542343 0.000000 0.000000 0.000000 5.391940 1.601262 -0.928153 24.776586 2.884925 -5.108831 6.226022 1.516365 -1.547384 1.595169 1.993196 -0.746627 0.000000 0.000000 0.000000 -1.094193 1.375052 -0.007657 -2.970807 0.770522 0.107943 0.000000 0.000000 0.000000 0.610481 1.574637 -2.226469 -1.316068 -2.883507 -15.997256 0.442002 -12.108979 -51.305659 5.325090 -45.163325 0.079521 0.000000 0.000000 0.000000 1.809414 1.687513 0.787770 -1.346576 6.326582 13.536923 -2.434390 -0.539387 44.556893 1.010465 46.448951 0.297730 0.000000 0.000000 0.000000 
-2.401426 86.657005 8.257616 0.000000 0.000000 0.000000 -2.349503 -20.031261 -8.409194 -47.256867 8.032642 10.669088 64.042374 0.359904 1.866346 10.183089 -1.529342 -1.981236 0.000000 0.000000 0.000000 12.947235 1.100403 5.786481 -12.309193 -6.934078 -8.116371 23.487759 -0.738619 -2.074346 -25.378884 -4.383701 7.155387 0.000000 0.000000 0.000000 7.761865 2.990606 -1.141491 25.534343 3.031542 -4.184605 6.358820 1.822578 -2.211241 0.817014 1.957163 -0.623320 0.000000 0.000000 0.000000 -0.728543 1.267730 -0.234165 -3.159891 0.769756 0.051350 0.000000 0.000000 0.000000 0.575809 1.593880 -2.069873 -1.331586 -1.596617 -15.630029 -0.113185 -10.479627 -50.577476 4.480363 -45.569479 0.088817 0.000000 0.000000 0.000000 1.729710 1.768702 0.859901 -1.102527 6.412986 13.659266 0.004672 -1.525150 44.705979 1.311972 48.292064 0.460667 0.000000 0.000000 0.000000 
-3.108417 86.422615 10.919611 0.000000 0.000000 0.000000 -2.849533 -18.886959 -10.024362 -47.991648 8.925997 9.559177 62.495165 0.667669 1.578824 8.818094 -1.005848 -2.207498 0.000000 0.000000 0.000000 13.949552 1.374911 5.944539 -10.931889 -7.010417 -7.857803 22.613115 -0.888738 -2.118888 -26.136257 -4.555667 6.981716 0.000000 0.000000 0.000000 6.623608 -0.156571 -0.581072 29.016249 5.342201 -5.644009 5.496424 1.439596 -2.166007 1.367851 2.241072 -0.648369 0.000000 0.000000 0.000000 -1.398278 1.242306 -0.126776 -3.175382 0.674449 0.106234 0.000000 0.000000 0.000000 0.849516 1.859141 -1.948243 -0.616506 -0.595909 -14.272535 -0.232645 -10.103670 -50.877686 5.077394 -46.423846 0.573488 0.000000 0.000000 0.000000 1.834263 1.772808 0.880287 -1.081507 5.738335 14.132426 -1.070122 -1.057903 45.588876 1.781401 47.485114 0.476071 0.000000 0.000000 0.000000 
-2.590771 86.245583 13.855153 0.000000 0.000000 0.000000 -4.460538 -17.520839 -10.527373 -49.671373 9.059664 9.326232 60.268824 0.691210 1.407122 7.160031 -0.822758 -2.487106 0.000000 0.000000 0.000000 15.180447 2.020901 6.008752 -8.676644 -6.945341 -7.364539 21.100430 -0.766106 -1.771562 -27.009034 -4.693357 7.455497 0.000000 0.000000 0.000000 7.386979 0.667881 -0.269034 27.257651 5.282350 -4.930985 5.504204 2.004627 -2.305764 1.762089 1.745357 -0.728055 0.000000 0.000000 0.000000 -0.800115 1.195690 -0.044506 -3.170422 0.596759 0.098960 0.000000 0.000000 0.000000 0.981282 1.952861 -1.868794 -0.486988 -1.027886 -14.025875 1.922057 -10.211500 -49.591473 5.154427 -47.234802 0.658142 0.000000 0.000000 0.000000 1.890536 2.081356 0.900628 -1.082728 5.168279 14.501299 -1.335321 -1.691806 45.742719 1.170227 48.178963 0.953877 0.000000 0.000000 0.000000 
-3.317327 86.470139 15.108628 0.000000 0.000000 0.000000 -5.816104 -18.251835 -11.389223 -51.231005 8.995229 8.904463 59.257130 1.016978 1.233787 5.986053 -0.328532 -2.559989 0.000000 0.000000 0.000000 16.055190 1.478227 6.192122 -7.435237 -7.253657 -7.161450 21.402328 -0.943427 -1.846944 -26.807331 -4.752008 7.226830 0.000000 0.000000 0.000000 7.940153 -0.524995 -0.377023 28.198723 5.955178 -5.191368 5.170249 2.374619 -2.352072 0.755344 2.062710 -1.079992 0.000000 0.000000 0.000000 -1.043638 1.412492 -0.286062 -3.415631 0.570521 0.173893 0.000000 0.000000 0.000000 0.772247 1.984452 -2.018623 -0.801784 0.457315 -14.216840 1.931751 -7.497527 -50.129542 4.493227 -48.483681 1.133823 0.000000 0.000000 0.000000 2.249314 2.373223 0.507005 -1.465744 5.067325 14.829027 -0.390861 -2.305814 46.686126 0.960834 50.708953 1.645534 0.000000 0.000000 0.000000 
-4.547886 85.682091 17.802801 0.000000 0.000000 0.000000 -5.784645 -17.505737 -11.626684 -51.565264 9.307166 8.947048 58.387968 1.369419 1.297036 5.157477 0.049358 -2.209762 0.000000 0.000000 0.000000 16.815277 1.847776 6.397082 -6.409161 -7.284562 -6.862257 21.669100 -0.597965 -1.906799 -26.667980 -4.387208 7.323459 0.000000 0.000000 0.000000 8.590068 0.119405 -0.076313 26.618933 5.386182 -6.438422 5.141299 2.732156 -2.758914 0.798924 2.315893 -1.043724 0.000000 0.000000 0.000000 -0.790551 1.611332 -0.224687 -3.408121 0.614884 0.176704 0.000000 0.000000 0.000000 0.513041 2.175785 -2.062579 -0.832724 0.460805 -14.070610 1.940047 -7.264888 -49.326499 4.155684 -48.058966 1.041369 0.000000 0.000000 0.000000 2.307210 2.570386 0.472542 -1.254202 5.615570 14.560908 -1.103100 -1.739972 46.896939 0.814284 50.714441 1.765616 0.000000 0.000000 0.000000 
-4.649591 85.276039 20.411304 0.000000 0.000000 0.000000 -5.812993 -16.893891 -11.003996 -51.289274 9.100303 9.208550 56.492706 1.629361 1.318364 3.948629 0.372666 -1.982687 0.000000 0.000000 0.000000 17.137177 0.197554 6.770125 -6.027710 -7.816194 -6.680420 21.383449 -0.462898 -1.627154 -26.824526 -4.429354 7.793753 0.000000 0.000000 0.000000 9.158405 0.428426 0.204058 27.074633 3.965173 -5.924936 4.985078 2.751296 -2.869393 0.631942 2.314486 -1.113990 0.000000 0.000000 0.000000 -0.579459 1.465602 -0.174610 -3.376604 0.557607 0.157345 0.000000 0.000000 0.000000 0.581265 2.240670 -1.866052 -0.515708 1.269116 -13.904725 2.096078 -6.453031 -48.394267 3.781614 -48.561911 1.249605 0.000000 0.000000 0.000000 2.409822 2.640949 0.440420 -1.303309 5.017085 14.143000 -0.817459 -2.306626 48.143780 0.731545 52.226126 2.185679 0.000000 0.000000 0.000000 
